<svg width="95" height="96" viewBox="0 0 95 96" fill="none" xmlns="http://www.w3.org/2000/svg">
<path d="M70.0819 41.4408C70.0788 42.1941 70.2884 42.9332 70.6868 43.574C71.0851 44.2147 71.6564 44.7315 72.3355 45.0656C73.5323 45.6569 74.539 46.5693 75.2416 47.6996C75.9442 48.83 76.3148 50.1332 76.3114 51.462V53.2364C76.3131 54.311 76.7432 55.3411 77.5075 56.101C78.2717 56.8608 79.3078 57.2884 80.3887 57.29H94.3879C93.185 51.2019 90.2586 45.5818 85.9528 41.0908C81.647 36.5997 76.1409 33.4245 70.0819 31.9384V41.4408Z" fill="#00DD66"/>
<path d="M80.3886 60.3868C78.4817 60.3851 76.6533 59.6313 75.3049 58.2907C73.9566 56.9501 73.1983 55.1323 73.1966 53.2364V51.4619C73.1983 50.7099 72.988 49.9725 72.5898 49.3333C72.1915 48.694 71.621 48.1784 70.9431 47.8449C69.7451 47.253 68.7376 46.3394 68.0349 45.2076C67.3322 44.0758 66.9623 42.7709 66.9671 41.4408V31.3392C61.9308 30.5718 56.7835 30.9939 51.9416 32.5713C47.0998 34.1487 42.6995 36.8372 39.0967 40.4192C35.4938 44.0012 32.7897 48.3761 31.2031 53.19C29.6165 58.0038 29.192 63.1214 29.9639 68.1287H37.377C38.6161 68.1287 39.8045 67.6393 40.6807 66.7682C41.5569 65.897 42.0491 64.7155 42.0491 63.4835C42.0516 61.431 42.8728 59.4633 44.3326 58.0119C45.7924 56.5606 47.7716 55.7441 49.836 55.7416C51.5638 55.7538 53.2585 56.2137 54.7529 57.0758C56.2474 57.9379 57.4899 59.1725 58.358 60.6578C58.9177 61.5878 59.6743 62.3855 60.5752 62.9957C61.4761 63.6059 62.4998 64.0138 63.5752 64.1912C65.3955 64.4877 67.0502 65.4192 68.2425 66.8186C69.4348 68.218 70.0869 69.9938 70.0819 71.8278V72.7738C70.0782 75.6473 68.9284 78.402 66.8848 80.4338C64.8411 82.4657 62.0704 83.6088 59.1803 83.6125C57.4958 83.615 55.8572 84.1581 54.5081 85.1609L45.9021 91.5758C50.8668 94.4564 56.5086 95.9825 62.2569 95.9999C68.0053 96.0172 73.6563 94.525 78.6385 91.6744C83.6207 88.8237 87.7574 84.7156 90.6304 79.7654C93.5034 74.8153 95.0107 69.1987 94.9999 63.4835C94.9999 62.4384 94.9392 61.4072 94.8442 60.3868H80.3886Z" fill="#00DD66"/>
<path d="M59.1803 80.5157C61.2448 80.5133 63.2239 79.6968 64.6837 78.2455C66.1435 76.7941 66.9647 74.8263 66.9672 72.7738V71.8278C66.9699 70.7274 66.5785 69.6621 65.8631 68.8225C65.1477 67.983 64.155 67.4242 63.0629 67.2461C61.5421 66.9943 60.0947 66.4166 58.8211 65.553C57.5474 64.6894 56.478 63.5605 55.6871 62.2448C55.0968 61.2178 54.2457 60.3627 53.219 59.765C52.1923 59.1672 51.0258 58.8478 49.8361 58.8384C48.5969 58.8384 47.4086 59.3278 46.5324 60.1989C45.6562 61.0701 45.1639 62.2516 45.1639 63.4835C45.1615 65.5361 44.3403 67.5038 42.8805 68.9552C41.4207 70.4065 39.4415 71.223 37.3771 71.2254H30.5667C32.4198 78.6896 36.8704 85.2608 43.13 89.775L52.6393 82.6835C54.5281 81.2796 56.8221 80.5194 59.1803 80.5157Z" fill="#00DD66"/>
<path d="M73.1967 0H4.67213C3.433 0 2.24463 0.489397 1.36843 1.36053C0.492241 2.23166 0 3.41317 0 4.64514V72.7738C0 74.0058 0.492241 75.1873 1.36843 76.0584C2.24463 76.9296 3.433 77.419 4.67213 77.419H73.1967C74.4358 77.419 75.6242 76.9296 76.5004 76.0584C77.3766 75.1873 77.8688 74.0058 77.8688 72.7738V4.64514C77.8688 3.41317 77.3766 2.23166 76.5004 1.36053C75.6242 0.489397 74.4358 0 73.1967 0ZM4.67213 3.09676H73.1967C73.6097 3.09676 74.0058 3.25989 74.2979 3.55027C74.59 3.84065 74.7541 4.23448 74.7541 4.64514V12.5032L3.11475 12.387V4.64514C3.11475 4.23448 3.27883 3.84065 3.5709 3.55027C3.86296 3.25989 4.25909 3.09676 4.67213 3.09676ZM73.1967 74.3222H4.67213C4.25909 74.3222 3.86296 74.1591 3.5709 73.8687C3.27883 73.5783 3.11475 73.1845 3.11475 72.7738V15.4838L74.7541 15.5968V72.7738C74.7541 73.1845 74.59 73.5783 74.2979 73.8687C74.0058 74.1591 73.6097 74.3222 73.1967 74.3222Z" fill="#0F4C81"/>
<path d="M7.78687 9.29027H10.9016C11.3147 9.29027 11.7108 9.12714 12.0029 8.83676C12.2949 8.54638 12.459 8.15255 12.459 7.74189C12.459 7.33124 12.2949 6.9374 12.0029 6.64702C11.7108 6.35664 11.3147 6.19351 10.9016 6.19351H7.78687C7.37383 6.19351 6.9777 6.35664 6.68564 6.64702C6.39357 6.9374 6.22949 7.33124 6.22949 7.74189C6.22949 8.15255 6.39357 8.54638 6.68564 8.83676C6.9777 9.12714 7.37383 9.29027 7.78687 9.29027Z" fill="#0F4C81"/>
<path d="M18.6885 9.29027H21.8032C22.2163 9.29027 22.6124 9.12714 22.9045 8.83676C23.1965 8.54638 23.3606 8.15255 23.3606 7.74189C23.3606 7.33124 23.1965 6.9374 22.9045 6.64702C22.6124 6.35664 22.2163 6.19351 21.8032 6.19351H18.6885C18.2754 6.19351 17.8793 6.35664 17.5872 6.64702C17.2952 6.9374 17.1311 7.33124 17.1311 7.74189C17.1311 8.15255 17.2952 8.54638 17.5872 8.83676C17.8793 9.12714 18.2754 9.29027 18.6885 9.29027Z" fill="#0F4C81"/>
<path d="M29.5902 9.29027H32.7049C33.1179 9.29027 33.5141 9.12714 33.8061 8.83676C34.0982 8.54638 34.2623 8.15255 34.2623 7.74189C34.2623 7.33124 34.0982 6.9374 33.8061 6.64702C33.5141 6.35664 33.1179 6.19351 32.7049 6.19351H29.5902C29.1771 6.19351 28.781 6.35664 28.4889 6.64702C28.1969 6.9374 28.0328 7.33124 28.0328 7.74189C28.0328 8.15255 28.1969 8.54638 28.4889 8.83676C28.781 9.12714 29.1771 9.29027 29.5902 9.29027Z" fill="#0F4C81"/>
<path d="M66.0016 35.6127C66.0039 33.0143 65.4082 30.4498 64.26 28.1156C63.1119 25.7813 61.4418 23.7392 59.3776 22.1455C57.3134 20.5518 54.9098 19.4488 52.3508 18.9209C49.7918 18.393 47.1452 18.4542 44.6137 19.0999C42.0821 19.7455 39.7327 20.9585 37.7453 22.646C35.7579 24.3334 34.1852 26.4506 33.1475 28.8354C32.1098 31.2202 31.6347 33.8095 31.7586 36.405C31.8824 39.0005 32.6019 41.5334 33.862 43.8098L13.8295 61.994C13.2297 62.5398 12.7473 63.2007 12.4114 63.9369C12.0755 64.673 11.8931 65.4692 11.8751 66.2774C11.8571 67.0856 12.0039 67.8891 12.3068 68.6393C12.6096 69.3895 13.0621 70.071 13.6371 70.6426C14.212 71.2142 14.8974 71.6641 15.652 71.9652C16.4066 72.2663 17.2147 72.4123 18.0276 72.3944C18.8405 72.3765 19.6413 72.1951 20.3817 71.8612C21.1222 71.5272 21.7869 71.0476 22.3359 70.4513L40.6257 50.5345C43.2332 51.962 46.17 52.6888 49.1463 52.6433C52.1226 52.5977 55.0355 51.7814 57.5976 50.2748C60.1596 48.7683 62.2823 46.6235 63.7561 44.0523C65.2299 41.4811 66.0038 38.5722 66.0016 35.6127ZM48.8705 21.6773C51.6427 21.6773 54.3526 22.4946 56.6576 24.0259C58.9625 25.5571 60.7591 27.7335 61.8199 30.2799C62.8808 32.8262 63.1584 35.6282 62.6175 38.3314C62.0767 41.0346 60.7418 43.5176 58.7816 45.4665C56.8213 47.4155 54.3238 48.7427 51.6049 49.2804C48.886 49.8181 46.0678 49.5421 43.5066 48.4874C40.9455 47.4326 38.7564 45.6465 37.2163 43.3548C35.6761 41.0632 34.8541 38.3689 34.8541 35.6127C34.8582 31.9181 36.3363 28.3759 38.9639 25.7634C41.5916 23.1509 45.1544 21.6814 48.8705 21.6773ZM20.0357 68.364C17.318 71.3184 13.0041 66.9411 15.9288 64.281L30.9513 50.6428L33.7546 53.4299L20.0357 68.364ZM35.8555 51.1383L33.2531 48.5525L35.625 46.4003C36.3432 47.27 37.1455 48.0676 38.0202 48.7817L35.8555 51.1383Z" fill="#0F4C81"/>
<path d="M48.8705 46.4514C51.0266 46.4514 53.1343 45.8157 54.9271 44.6247C56.7198 43.4338 58.1171 41.741 58.9423 39.7605C59.7674 37.78 59.9833 35.6007 59.5626 33.4982C59.142 31.3957 58.1037 29.4645 56.5791 27.9486C55.0544 26.4328 53.112 25.4005 50.9973 24.9823C48.8825 24.5641 46.6906 24.7788 44.6986 25.5991C42.7066 26.4195 41.004 27.8087 39.8061 29.5911C38.6082 31.3735 37.9688 33.469 37.9688 35.6127C37.9725 38.4862 39.1223 41.2409 41.1659 43.2727C43.2096 45.3046 45.9803 46.4477 48.8705 46.4514ZM48.8705 27.8708C50.4106 27.8708 51.9161 28.3249 53.1966 29.1756C54.4772 30.0263 55.4752 31.2354 56.0646 32.65C56.654 34.0647 56.8082 35.6213 56.5077 37.1231C56.2073 38.6249 55.4656 40.0044 54.3766 41.0871C53.2876 42.1698 51.9001 42.9071 50.3896 43.2059C48.8791 43.5046 47.3134 43.3513 45.8905 42.7653C44.4677 42.1793 43.2515 41.187 42.3959 39.9139C41.5403 38.6407 41.0836 37.1439 41.0836 35.6127C41.086 33.5602 41.9072 31.5924 43.367 30.1411C44.8268 28.6897 46.806 27.8733 48.8705 27.8708Z" fill="#0F4C81"/>
<path d="M9.34424 30.9676H26.4754C26.8884 30.9676 27.2845 30.8044 27.5766 30.5141C27.8687 30.2237 28.0328 29.8299 28.0328 29.4192C28.0328 29.0085 27.8687 28.6147 27.5766 28.3243C27.2845 28.034 26.8884 27.8708 26.4754 27.8708H9.34424C8.9312 27.8708 8.53508 28.034 8.24301 28.3243C7.95095 28.6147 7.78687 29.0085 7.78687 29.4192C7.78687 29.8299 7.95095 30.2237 8.24301 30.5141C8.53508 30.8044 8.9312 30.9676 9.34424 30.9676Z" fill="#0F4C81"/>
<path d="M9.34424 38.7095H26.4754C26.8884 38.7095 27.2845 38.5464 27.5766 38.256C27.8687 37.9656 28.0328 37.5718 28.0328 37.1611C28.0328 36.7505 27.8687 36.3566 27.5766 36.0662C27.2845 35.7759 26.8884 35.6127 26.4754 35.6127H9.34424C8.9312 35.6127 8.53508 35.7759 8.24301 36.0662C7.95095 36.3566 7.78687 36.7505 7.78687 37.1611C7.78687 37.5718 7.95095 37.9656 8.24301 38.256C8.53508 38.5464 8.9312 38.7095 9.34424 38.7095Z" fill="#0F4C81"/>
<path d="M20.2459 44.903C20.2459 44.4923 20.0818 44.0985 19.7897 43.8081C19.4977 43.5177 19.1015 43.3546 18.6885 43.3546H9.34424C8.9312 43.3546 8.53508 43.5177 8.24301 43.8081C7.95095 44.0985 7.78687 44.4923 7.78687 44.903C7.78687 45.3136 7.95095 45.7075 8.24301 45.9979C8.53508 46.2882 8.9312 46.4514 9.34424 46.4514H18.6885C19.1015 46.4514 19.4977 46.2882 19.7897 45.9979C20.0818 45.7075 20.2459 45.3136 20.2459 44.903Z" fill="#0F4C81"/>
<path d="M68.5246 58.8384H51.3934C50.9804 58.8384 50.5843 59.0015 50.2922 59.2919C50.0001 59.5823 49.8361 59.9761 49.8361 60.3868C49.8361 60.7974 50.0001 61.1913 50.2922 61.4817C50.5843 61.772 50.9804 61.9352 51.3934 61.9352H68.5246C68.9376 61.9352 69.3337 61.772 69.6258 61.4817C69.9179 61.1913 70.0819 60.7974 70.0819 60.3868C70.0819 59.9761 69.9179 59.5823 69.6258 59.2919C69.3337 59.0015 68.9376 58.8384 68.5246 58.8384Z" fill="#0F4C81"/>
<path d="M68.5246 51.0965H62.295C61.882 51.0965 61.4859 51.2597 61.1938 51.55C60.9017 51.8404 60.7377 52.2343 60.7377 52.6449C60.7377 53.0556 60.9017 53.4494 61.1938 53.7398C61.4859 54.0302 61.882 54.1933 62.295 54.1933H68.5246C68.9376 54.1933 69.3337 54.0302 69.6258 53.7398C69.9178 53.4494 70.0819 53.0556 70.0819 52.6449C70.0819 52.2343 69.9178 51.8404 69.6258 51.55C69.3337 51.2597 68.9376 51.0965 68.5246 51.0965Z" fill="#0F4C81"/>
</svg>
