<svg width="98" height="94" viewBox="0 0 98 94" fill="none" xmlns="http://www.w3.org/2000/svg">
<path d="M95.3513 32.8645L75.2569 16.725C74.5452 16.1548 73.6867 15.7975 72.7805 15.6944C71.8743 15.5914 70.9575 15.7468 70.1359 16.1426C69.3143 16.5385 68.6214 17.1588 68.1374 17.9317C67.6533 18.7046 67.3978 19.5987 67.4003 20.5107V89.1504C67.3995 90.4341 67.908 91.6658 68.8143 92.575C69.7205 93.4842 70.9505 93.9967 72.2343 94H78.77C80.0533 93.9971 81.2831 93.4852 82.1893 92.5765C83.0956 91.6679 83.6044 90.4368 83.604 89.1535V43.2094C83.6027 42.7565 83.7812 42.3217 84.1002 42.0003C84.4193 41.6789 84.8528 41.4972 85.3057 41.4951H92.3287C93.3294 41.4877 94.3034 41.1713 95.1175 40.5892C95.9316 40.0071 96.546 39.1879 96.8768 38.2433C97.2076 37.2988 97.2386 36.2752 96.9655 35.3124C96.6924 34.3496 96.1287 33.4947 95.3513 32.8645Z" fill="#00DD66"/>
<path d="M57.8639 15.6532H51.3282C50.0447 15.6565 48.815 16.1688 47.9088 17.0777C47.0025 17.9866 46.4938 19.2178 46.4942 20.5013V66.4376C46.4938 66.8894 46.3146 67.3226 45.9957 67.6427C45.6769 67.9627 45.2443 68.1435 44.7925 68.1456H37.7695C36.7684 68.1527 35.794 68.4689 34.9795 69.0511C34.165 69.6332 33.5503 70.4528 33.2194 71.3976C32.8885 72.3425 32.8577 73.3666 33.1312 74.3296C33.4046 75.2927 33.9689 76.1478 34.7469 76.7778L54.8413 92.9173C55.5523 93.4874 56.4099 93.845 57.3154 93.9487C58.2208 94.0524 59.1371 93.898 59.9586 93.5034C60.7801 93.1088 61.4733 92.49 61.9582 91.7184C62.4432 90.9468 62.7002 90.0539 62.6995 89.1425V20.4982C62.6987 19.2151 62.1892 17.9847 61.2828 17.0765C60.3764 16.1684 59.147 15.6565 57.8639 15.6532Z" fill="#00DD66"/>
<path d="M72.1011 39.1572C72.1311 31.8964 69.9551 24.7977 65.8611 18.801C61.7672 12.8043 55.9484 8.19253 49.1753 5.57622C48.788 5.42474 48.3563 5.43333 47.9753 5.60009C47.5944 5.76686 47.2952 6.07814 47.1437 6.46546C46.9923 6.85277 47.0008 7.2844 47.1676 7.66539C47.3344 8.04638 47.6457 8.34551 48.033 8.49699C54.8526 11.1584 60.5896 16.0186 64.3357 22.3081C68.0817 28.5977 69.6227 35.957 68.7147 43.2211C67.8066 50.4851 64.5014 57.2387 59.3224 62.4125C54.1434 67.5863 47.3865 70.8848 40.1215 71.7855L40.3033 71.6037C40.5887 71.3082 40.7466 70.9124 40.7431 70.5016C40.7395 70.0907 40.5747 69.6977 40.2842 69.4072C39.9937 69.1167 39.6007 68.9519 39.1898 68.9483C38.779 68.9447 38.3832 69.1027 38.0876 69.3881L34.9538 72.522C34.8078 72.6675 34.6921 72.8404 34.6131 73.0308C34.5341 73.2212 34.4934 73.4252 34.4934 73.6314C34.4934 73.8375 34.5341 74.0415 34.6131 74.2319C34.6921 74.4223 34.8078 74.5952 34.9538 74.7407L38.0876 77.8746C38.3832 78.16 38.779 78.318 39.1898 78.3144C39.6007 78.3108 39.9937 78.1461 40.2842 77.8555C40.5747 77.565 40.7395 77.172 40.7431 76.7612C40.7466 76.3503 40.5887 75.9545 40.3033 75.659L39.664 75.0197C48.5502 74.116 56.7857 69.949 62.7773 63.3247C68.769 56.7003 72.0911 48.0893 72.1011 39.1572Z" fill="#0F4C81"/>
<path d="M24.0949 69.8191C17.2746 67.1585 11.5367 62.2987 7.78981 56.0093C4.04294 49.7199 2.5012 42.3603 3.40874 35.0958C4.31628 27.8314 7.62122 21.0773 12.8002 15.903C17.9793 10.7287 24.7364 7.42988 32.0017 6.52897L31.8199 6.71073C31.5345 7.00626 31.3765 7.40207 31.3801 7.81292C31.3837 8.22376 31.5485 8.61677 31.839 8.90729C32.1295 9.19782 32.5225 9.36261 32.9334 9.36618C33.3442 9.36975 33.74 9.21181 34.0355 8.92638L37.1694 5.79251C37.3153 5.64695 37.4311 5.47404 37.5101 5.28367C37.5891 5.09331 37.6298 4.88923 37.6298 4.68312C37.6298 4.47701 37.5891 4.27293 37.5101 4.08256C37.4311 3.8922 37.3153 3.71928 37.1694 3.57373L34.0355 0.439857C33.74 0.154427 33.3442 -0.0035109 32.9334 5.92343e-05C32.5225 0.00362937 32.1295 0.168422 31.839 0.458945C31.5485 0.749468 31.3837 1.14247 31.3801 1.55332C31.3765 1.96417 31.5345 2.35998 31.8199 2.6555L32.4592 3.29481C24.4035 4.09909 16.8532 7.59229 11.0251 13.2114C5.197 18.8306 1.4306 26.2484 0.332887 34.2694C-0.764828 42.2904 0.87008 50.4474 4.97413 57.4258C9.07819 64.4043 15.4123 69.7976 22.9557 72.7367C23.3431 72.8878 23.7745 72.8788 24.1552 72.7117C24.5359 72.5447 24.8347 72.2332 24.9857 71.8459C25.1368 71.4586 25.1278 71.0271 24.9607 70.6464C24.7937 70.2657 24.4822 69.967 24.0949 69.8159V69.8191Z" fill="#0F4C81"/>
<path d="M17.2255 20.3227C14.6745 22.8649 12.6671 25.8992 11.3253 29.2412C9.98344 32.5833 9.33518 36.1633 9.41989 39.7637C9.5046 43.364 10.3205 46.9096 11.818 50.1849C13.3156 53.4601 15.4635 56.3967 18.1311 58.816C18.2822 59.0606 18.4996 59.2573 18.7579 59.3833C23.8275 63.739 30.3523 66.0243 37.0318 65.7835C43.7112 65.5428 50.0546 62.7937 54.7974 58.0843L54.8272 58.0561C54.8491 58.0341 54.8742 58.0169 54.8962 57.9934C54.9432 57.9464 54.9823 57.8947 55.0293 57.8477L55.0544 57.8195C59.7356 53.0728 62.4607 46.7393 62.6886 40.0766C62.9164 33.4138 60.6304 26.909 56.2845 21.8536C56.1566 21.595 55.9584 21.3777 55.7125 21.2268C53.2919 18.5622 50.3552 16.4171 47.0806 14.9215C43.806 13.426 40.2617 12.6113 36.6628 12.5267C33.0638 12.4422 29.4852 13.0896 26.1439 14.4297C22.8027 15.7698 19.7685 17.7747 17.2255 20.3227ZM52.5144 53.4023L48.21 49.0995C49.4389 47.7508 50.5546 46.3033 51.546 44.7716C52.2908 47.5853 52.6171 50.4934 52.5144 53.4023ZM19.6088 24.9154L30.4786 35.7852C28.3685 37.6879 25.9966 39.2783 23.4352 40.508C20.7386 35.7658 19.4138 30.3672 19.6088 24.9154ZM32.6942 38.0009L43.7928 49.0995C41.9729 50.7441 39.9573 52.1582 37.7915 53.3098C32.716 51.1577 28.3339 47.6449 25.1291 43.1592C27.8764 41.8005 30.4201 40.0643 32.6864 38.0009H32.6942ZM45.9866 51.2932L50.3129 55.6195C47.3992 55.7227 44.4862 55.3954 41.6681 54.648C43.1943 53.6496 44.6361 52.5275 45.9787 51.2932H45.9866ZM46.0085 46.8838L34.9021 35.7852C36.9658 33.5157 38.7021 30.9688 40.0604 28.2185C44.546 31.4234 48.0588 35.8055 50.211 40.8809C49.0595 43.0472 47.6454 45.0634 46.0007 46.8838H46.0085ZM32.6895 33.5649L21.815 22.7044C27.2678 22.5078 32.6677 23.8322 37.4107 26.5293C36.1801 29.0896 34.5892 31.4604 32.6864 33.5696L32.6895 33.5649ZM23.0874 19.5549C28.1319 16.2048 34.2802 14.9446 40.2359 16.0403C40.035 18.6232 39.4967 21.1686 38.6345 23.6117C33.8735 20.9791 28.5277 19.5842 23.0874 19.5549ZM16.4561 26.1846C16.4852 31.6254 17.8801 36.9718 20.5129 41.7333C18.0698 42.5949 15.5243 43.1328 12.9414 43.3331C11.8465 37.3775 13.1066 31.2294 16.4561 26.1846ZM13.7045 46.3981C16.607 46.1243 19.46 45.4645 22.1879 44.4363C25.2177 48.8506 29.268 52.4687 33.9948 54.9833C29.5963 56.5658 24.8866 57.0887 20.2481 56.5095C17.2081 53.7802 14.9496 50.2907 13.7045 46.3996V46.3981ZM24.8831 59.8408C29.4003 59.7141 33.8416 58.6468 37.9231 56.7069C41.4768 58.0331 45.235 58.7278 49.028 58.7596C45.4778 61.1076 41.3571 62.4482 37.105 62.6386C32.8529 62.829 28.6289 61.862 24.8831 59.8408ZM55.664 52.133C55.6415 48.3452 54.958 44.5903 53.6442 41.0376C55.5798 36.9668 56.6471 32.5377 56.778 28.032C58.7853 31.7757 59.7416 35.9929 59.5455 40.2362C59.3493 44.4795 58.008 48.5905 55.664 52.133ZM53.4123 23.3469C53.9937 27.9864 53.4707 32.6976 51.8861 37.0967C49.3729 32.3676 45.7547 28.3155 41.339 25.2852C42.3672 22.5576 43.0275 19.7053 43.3024 16.8034C47.1937 18.0478 50.6834 20.3064 53.4123 23.3469Z" fill="#0F4C81"/>
</svg>
