<svg width="97" height="97" viewBox="0 0 97 97" fill="none" xmlns="http://www.w3.org/2000/svg">
<path d="M83.5749 56.3461C82.6365 54.0346 81.0319 52.0544 78.965 50.6572C76.8982 49.2601 74.4625 48.5092 71.9678 48.5001H71.852C70.4737 46.1157 68.3473 44.2525 65.8025 43.1993C63.2577 42.1461 60.4366 41.9616 57.7764 42.6746C55.1161 43.3875 52.7653 44.9579 51.0882 47.1426C49.4111 49.3272 48.5014 52.004 48.5001 54.7581C46.7965 54.7571 45.1247 55.2198 43.6639 56.0965C42.2032 56.9732 41.0086 58.2309 40.2082 59.7348C39.3391 59.5456 38.4521 59.4507 37.5626 59.4517C34.5007 59.4568 31.546 60.5801 29.254 62.6103C26.9619 64.6405 25.4901 67.4379 25.1153 70.4768C24.966 71.7688 25.0134 73.0759 25.2561 74.3537C23.0636 75.1926 21.1512 76.6311 19.7373 78.5051C18.3235 80.3792 17.4651 82.613 17.2604 84.9516C17.0556 87.2902 17.5126 89.6392 18.5793 91.7304C19.646 93.8216 21.2793 95.5707 23.2927 96.7778C23.5345 96.9233 23.8115 97.0001 24.0937 97H87.6129C88.8577 97 90.0516 96.5055 90.9318 95.6253C91.812 94.7451 92.3065 93.5513 92.3065 92.3065V65.7097C92.3038 63.3344 91.4017 61.0483 89.7818 59.3111C88.1619 57.5739 85.9442 56.5145 83.5749 56.3461ZM29.557 82.8771C28.7575 82.9428 28.0113 83.3042 27.4639 83.8906C26.9166 84.477 26.6074 85.2463 26.5969 86.0484C26.5912 86.8135 26.87 87.5534 27.3792 88.1245C27.517 88.277 27.6235 88.4551 27.6925 88.6487C27.7616 88.8423 27.7918 89.0476 27.7815 89.2528C27.7712 89.4581 27.7205 89.6594 27.6324 89.8451C27.5443 90.0308 27.4205 90.1973 27.2681 90.3352C27.1156 90.473 26.9375 90.5795 26.7439 90.6485C26.5503 90.7176 26.345 90.7478 26.1398 90.7375C25.9345 90.7272 25.7332 90.6765 25.5475 90.5884C25.3618 90.5003 25.1953 90.3765 25.0574 90.2241C24.0282 89.0774 23.4617 87.5892 23.4679 86.0484C23.4683 84.5407 24.0106 83.0835 24.996 81.9424C25.9814 80.8013 27.3442 80.0525 28.8357 79.8326C29.2375 79.7424 29.6585 79.8143 30.0076 80.0325C30.3568 80.2508 30.6058 80.5979 30.7007 80.9985C30.7956 81.3991 30.7287 81.821 30.5146 82.1727C30.3005 82.5244 29.9564 82.7775 29.557 82.8771ZM86.0484 86.0484C86.0484 87.2932 85.5539 88.487 84.6737 89.3672C83.7935 90.2474 82.5997 90.7419 81.3549 90.7419H75.0968C74.6819 90.7419 74.284 90.5771 73.9906 90.2837C73.6972 89.9903 73.5323 89.5924 73.5323 89.1774C73.5323 88.7625 73.6972 88.3646 73.9906 88.0711C74.284 87.7777 74.6819 87.6129 75.0968 87.6129H81.3549C81.7698 87.6129 82.1678 87.4481 82.4612 87.1547C82.7546 86.8613 82.9194 86.4633 82.9194 86.0484V76.6613C82.9194 76.2464 83.0842 75.8484 83.3776 75.555C83.671 75.2616 84.069 75.0968 84.4839 75.0968C84.8988 75.0968 85.2968 75.2616 85.5902 75.555C85.8836 75.8484 86.0484 76.2464 86.0484 76.6613V86.0484Z" fill="#00DD66"/>
<path d="M97.0001 25.0323C97.0001 23.3726 96.3407 21.7808 95.1671 20.6072C93.9935 19.4336 92.4017 18.7743 90.742 18.7743H78.2259C76.1512 18.7743 74.1615 19.5985 72.6945 21.0655C71.2275 22.5325 70.4033 24.5222 70.4033 26.5969C70.4033 28.6715 71.2275 30.6612 72.6945 32.1283C74.1615 33.5953 76.1512 34.4194 78.2259 34.4194C78.7928 34.4193 79.358 34.3558 79.9109 34.2301C80.2529 36.1565 81.3044 37.8848 82.858 39.0741C84.4115 40.2633 86.3543 40.8273 88.3032 40.6546C90.2521 40.482 92.0655 39.5853 93.3858 38.1415C94.7061 36.6976 95.4375 34.8114 95.4355 32.8549C95.4369 31.7969 95.2207 30.75 94.8004 29.7791C95.4878 29.1934 96.0403 28.466 96.42 27.6466C96.7997 26.8272 96.9976 25.9354 97.0001 25.0323Z" fill="#00DD66"/>
<path d="M28.1614 54.7581C33.3458 54.7581 37.5485 50.5554 37.5485 45.371C37.5485 40.1867 33.3458 35.9839 28.1614 35.9839C22.9771 35.9839 18.7744 40.1867 18.7744 45.371C18.7744 50.5554 22.9771 54.7581 28.1614 54.7581Z" fill="#00DD66"/>
<path d="M62.6308 39.5636L62.4336 39.3665L71.0181 30.782C71.6785 30.1226 72.151 29.2991 72.3872 28.3963C72.6235 27.4936 72.6147 26.5442 72.3619 25.6459C72.1092 24.7476 71.6215 23.933 70.9491 23.2859C70.2768 22.6388 69.4441 22.1826 68.5368 21.9644L37.5078 14.475C27.8649 5.15967 14.9722 -0.0324417 1.56467 0.000152538C1.14973 0.000152538 0.751791 0.164985 0.458388 0.458388C0.164985 0.751791 0.000152538 1.14973 0.000152538 1.56467C-0.0324417 14.9722 5.15967 27.8649 14.475 37.5078L21.9644 68.5368C22.1826 69.4441 22.6388 70.2768 23.2859 70.9491C23.933 71.6215 24.7476 72.1092 25.6459 72.3619C26.5442 72.6147 27.4936 72.6235 28.3963 72.3873C29.2991 72.1511 30.1226 71.6785 30.782 71.0182L39.3665 62.4337L39.5636 62.6308C40.5488 63.6143 41.8841 64.1666 43.2762 64.1666C44.6683 64.1666 46.0035 63.6143 46.9888 62.6308L62.6339 46.9856C63.616 46.0001 64.1672 44.6653 64.1666 43.274C64.166 41.8826 63.6137 40.5483 62.6308 39.5636ZM68.8059 28.5697L60.2214 37.1527L41.7977 18.729L67.8031 25.0042C68.1698 25.0927 68.5063 25.2773 68.778 25.539C69.0497 25.8007 69.2468 26.1301 69.3489 26.4932C69.451 26.8564 69.4546 27.2402 69.3591 27.6052C69.2637 27.9701 69.0727 28.3031 68.8059 28.5697ZM28.5697 68.8059C28.3031 69.0728 27.9701 69.2637 27.6052 69.3592C27.2402 69.4546 26.8564 69.4511 26.4932 69.3489C26.1301 69.2468 25.8007 69.0497 25.539 68.778C25.2773 68.5063 25.0927 68.1698 25.0042 67.8031L18.7289 41.7977L37.1527 60.2214L28.5697 68.8059ZM60.4186 44.7766L44.7734 60.4217C44.3753 60.8193 43.8357 61.0427 43.273 61.0427C42.7104 61.0427 42.1708 60.8193 41.7727 60.4217L17.4179 36.0622C8.62873 27.3222 3.52449 15.5453 3.15578 3.15578C15.5453 3.52449 27.3222 8.62874 36.0622 17.4179L60.4186 41.7727C60.8164 42.1713 61.0398 42.7115 61.0398 43.2746C61.0398 43.8378 60.8164 44.3779 60.4186 44.7766Z" fill="#0F4C81"/>
<path d="M17.4038 17.4038C16.4114 18.396 15.7356 19.6602 15.4617 21.0365C15.1879 22.4129 15.3283 23.8395 15.8653 25.136C16.4023 26.4325 17.3117 27.5407 18.4785 28.3204C19.6453 29.1 21.0171 29.5162 22.4204 29.5162C23.8237 29.5162 25.1955 29.1 26.3623 28.3204C27.5291 27.5407 28.4385 26.4325 28.9755 25.136C29.5125 23.8395 29.6529 22.4129 29.3791 21.0365C29.1052 19.6602 28.4294 18.396 27.437 17.4038C26.1058 16.0745 24.3016 15.328 22.4204 15.328C20.5392 15.328 18.7349 16.0745 17.4038 17.4038ZM25.2263 25.2263C24.6718 25.7805 23.9654 26.1577 23.1964 26.3105C22.4275 26.4632 21.6305 26.3845 20.9063 26.0843C20.182 25.7842 19.5631 25.2761 19.1276 24.6242C18.6921 23.9723 18.4596 23.2059 18.4596 22.4219C18.4596 21.638 18.6921 20.8716 19.1276 20.2197C19.5631 19.5678 20.182 19.0597 20.9063 18.7595C21.6305 18.4594 22.4275 18.3807 23.1964 18.5334C23.9654 18.6861 24.6718 19.0634 25.2263 19.6175C25.9668 20.3629 26.3822 21.3709 26.3819 22.4215C26.3816 23.4721 25.9656 24.4798 25.2248 25.2248L25.2263 25.2263Z" fill="#0F4C81"/>
<path d="M71.5579 52.0093C71.1728 51.4307 70.6641 50.9449 70.0685 50.5869C69.4729 50.2289 68.8051 50.0076 68.1136 49.939C67.422 49.8705 66.7238 49.9563 66.0695 50.1904C65.4152 50.4245 64.821 50.801 64.3298 51.2927L51.2927 64.3298C50.801 64.8209 50.4246 65.4151 50.1905 66.0695C49.9563 66.7238 49.8705 67.422 49.939 68.1136C50.0076 68.8051 50.2289 69.4728 50.5869 70.0685C50.9449 70.6641 51.4307 71.1728 52.0093 71.5579C59.0496 76.1841 68.3757 80.0062 76.3594 77.3466C76.5896 77.2706 76.7988 77.1417 76.9703 76.9702C77.1417 76.7988 77.2706 76.5896 77.3466 76.3594C80.3395 67.3822 75.0029 57.2504 71.5579 52.0093ZM74.6071 74.6087C67.0536 76.6347 58.3362 71.9756 53.7302 68.942C53.5383 68.8137 53.3774 68.6442 53.2591 68.4459C53.1409 68.2476 53.0684 68.0255 53.0468 67.7956C53.0252 67.5657 53.0552 67.334 53.1344 67.1171C53.2137 66.9003 53.3402 66.7038 53.505 66.542C54.8395 65.2091 48.6753 71.3717 66.5421 53.5049C66.704 53.3405 66.9005 53.2142 67.1173 53.1351C67.3341 53.056 67.5658 53.0261 67.7955 53.0477C68.0253 53.0693 68.2474 53.1417 68.4457 53.2598C68.644 53.3778 68.8135 53.5385 68.942 53.7302C71.9756 58.3409 76.6363 67.0536 74.6071 74.6087Z" fill="#0F4C81"/>
</svg>
