<svg width="98" height="97" viewBox="0 0 98 97" fill="none" xmlns="http://www.w3.org/2000/svg">
<path d="M96.9265 65.6579L88.6642 50.8701C89.9616 46.2798 89.8859 41.4109 88.4463 36.863C84.0471 25.0322 72.2632 18.7742 54.3624 18.7742C24.2389 18.7742 21.9006 42.1808 21.9006 49.3541C21.9006 57.1767 27.1069 64.3859 31.7005 70.7488C35.4884 75.9931 39.0664 80.9463 39.0664 85.194V92.3062C39.0664 93.551 39.5617 94.7449 40.4435 95.6251C41.3252 96.5053 42.5211 96.9998 43.768 96.9998H66.5476C67.7429 97.0117 68.8977 96.567 69.7753 95.7566C70.6529 94.9463 71.1869 93.8317 71.268 92.641C71.6081 86.7585 75.429 86.7585 76.6843 86.7585C86.5657 86.7585 88.5498 82.2417 88.5498 74.9542C88.4776 74.0181 88.6096 73.0775 88.9368 72.1973C89.2639 71.317 89.7784 70.5181 90.4448 69.8555C91.1112 69.193 91.9136 68.6826 92.7967 68.3595C93.6797 68.0365 94.6225 67.9085 95.5599 67.9843C95.8328 67.9839 96.1009 67.9124 96.3377 67.7768C96.5744 67.6412 96.7716 67.4463 96.9096 67.2112C97.0477 66.9762 97.1219 66.7092 97.1248 66.4368C97.1278 66.1644 97.0595 65.8959 96.9265 65.6579ZM62.6483 70.4031H53.245C52.8294 70.4031 52.4307 70.2382 52.1368 69.9448C51.8429 69.6514 51.6778 69.2535 51.6778 68.8386C51.6778 68.4236 51.8429 68.0257 52.1368 67.7323C52.4307 67.4389 52.8294 67.274 53.245 67.274H62.6483C63.064 67.274 63.4626 67.4389 63.7565 67.7323C64.0504 68.0257 64.2155 68.4236 64.2155 68.8386C64.2155 69.2535 64.0504 69.6514 63.7565 69.9448C63.4626 70.2382 63.064 70.4031 62.6483 70.4031ZM65.7828 64.145H50.1106C49.6949 64.145 49.2963 63.9802 49.0024 63.6868C48.7085 63.3934 48.5434 62.9954 48.5434 62.5805C48.5434 62.1656 48.7085 61.7676 49.0024 61.4742C49.2963 61.1808 49.6949 61.016 50.1106 61.016H65.7828C66.1984 61.016 66.597 61.1808 66.891 61.4742C67.1849 61.7676 67.35 62.1656 67.35 62.5805C67.35 62.9954 67.1849 63.3934 66.891 63.6868C66.597 63.9802 66.1984 64.145 65.7828 64.145ZM69.6115 58.9336C69.4751 59.091 69.3087 59.2196 69.1219 59.3119C68.9351 59.4042 68.7318 59.4585 68.5238 59.4714C68.3158 59.4843 68.1073 59.4557 67.9105 59.3873C67.7137 59.3188 67.5325 59.2118 67.3776 59.0726C67.2228 58.9334 67.0973 58.7647 67.0085 58.5765C66.9197 58.3883 66.8694 58.1842 66.8605 57.9764C66.8517 57.7685 66.8844 57.561 66.9569 57.3659C67.0294 57.1708 67.1401 56.9921 67.2826 56.8403C68.8989 55.0403 69.9585 52.8116 70.3333 50.4234C70.7081 48.0353 70.3822 45.5898 69.3948 43.3826C68.4075 41.1754 66.801 39.3008 64.7694 37.9854C62.7378 36.6699 60.3682 35.9699 57.9467 35.9699C55.5252 35.9699 53.1555 36.6699 51.1239 37.9854C49.0924 39.3008 47.4859 41.1754 46.4985 43.3826C45.5112 45.5898 45.1852 48.0353 45.56 50.4234C45.9349 52.8116 46.9944 55.0403 48.6107 56.8403C48.8888 57.1488 49.0327 57.555 49.0108 57.9694C48.9889 58.3838 48.803 58.7726 48.494 59.0502C48.1849 59.3278 47.7781 59.4714 47.363 59.4496C46.9478 59.4277 46.5584 59.2421 46.2803 58.9336C44.2586 56.6841 42.9329 53.8981 42.4633 50.9125C41.9938 47.9269 42.4005 44.8694 43.6344 42.1096C44.8682 39.3499 46.8764 37.0059 49.4161 35.361C51.9559 33.7162 54.9185 32.8408 57.9459 32.8408C60.9733 32.8408 63.9359 33.7162 66.4756 35.361C69.0154 37.0059 71.0235 39.3499 72.2574 42.1096C73.4912 44.8694 73.898 47.9269 73.4284 50.9125C72.9589 53.8981 71.6331 56.6841 69.6115 58.9336Z" fill="#00DD66"/>
<path d="M36.3864 12.5443C29.9989 12.9136 23.9874 15.6797 19.557 20.2878C15.1266 24.896 12.6048 31.0056 12.4973 37.3919C12.4683 41.1623 13.2978 44.8901 14.9233 48.2937C16.5487 51.6972 18.9276 54.6876 21.8803 57.039C22.2407 57.3284 22.5683 57.5506 22.8582 57.7462C23.4678 58.1576 23.4678 58.1576 23.4678 58.6317C23.4683 60.5076 24.2145 62.3067 25.5427 63.6338C26.8709 64.9609 28.6725 65.7075 30.5517 65.7095H44.594C46.4726 65.7075 48.2737 64.9613 49.6018 63.6349C50.9299 62.3085 51.6765 60.5102 51.6778 58.6348C51.6651 58.4766 51.6821 58.3174 51.7279 58.1655C51.8976 58.0109 52.0818 57.8731 52.278 57.754C52.5633 57.5616 52.8877 57.341 53.2466 57.0562C57.3785 53.753 60.3563 49.2283 61.7531 44.1312C63.1498 39.034 62.8937 33.6262 61.0215 28.6833C59.1492 23.7405 55.757 19.5165 51.3314 16.6171C46.9057 13.7177 41.674 12.292 36.3864 12.5443ZM51.286 54.6203C51.0055 54.8456 50.75 55.0145 50.5259 55.1663C49.8957 55.493 49.3733 55.9944 49.0217 56.6102C48.67 57.226 48.5039 57.9301 48.5434 58.6379C48.5425 59.6833 48.1262 60.6856 47.3857 61.4248C46.6452 62.164 45.6411 62.5797 44.594 62.5805H42.2745V32.8548C42.2746 32.2814 42.4326 31.7191 42.7312 31.2292C43.0297 30.7394 43.4573 30.3409 43.9674 30.0772C44.4774 29.8135 45.0502 29.6947 45.6232 29.734C46.1962 29.7732 46.7475 29.9688 47.2167 30.2995C47.6859 30.6302 48.0551 31.0832 48.2839 31.6091C48.5127 32.135 48.5924 32.7136 48.5142 33.2816C48.436 33.8497 48.2029 34.3854 47.8405 34.8302C47.478 35.275 47.0001 35.6118 46.459 35.8039C46.265 35.8727 46.0865 35.979 45.9337 36.1167C45.7808 36.2544 45.6567 36.4208 45.5683 36.6064C45.3897 36.9812 45.3676 37.4115 45.5069 37.8025C45.5758 37.9962 45.6823 38.1744 45.8202 38.3269C45.9581 38.4795 46.1248 38.6034 46.3107 38.6917C46.6862 38.8699 47.1172 38.892 47.509 38.753C48.5914 38.3688 49.5472 37.6952 50.2721 36.8055C50.9969 35.9159 51.463 34.8446 51.6194 33.7085C51.7758 32.5724 51.6165 31.4153 51.1589 30.3635C50.7012 29.3116 49.9629 28.4056 49.0244 27.7442C48.086 27.0828 46.9836 26.6915 45.8375 26.6131C44.6915 26.5347 43.5459 26.7722 42.5258 27.2996C41.5058 27.827 40.6505 28.624 40.0534 29.6037C39.4563 30.5834 39.1404 31.708 39.14 32.8548V62.5805H36.0056V32.8548C36.0053 31.708 35.6893 30.5834 35.0922 29.6037C34.4951 28.624 33.6399 27.827 32.6198 27.2996C31.5998 26.7722 30.4542 26.5347 29.3081 26.6131C28.1621 26.6915 27.0596 27.0828 26.1212 27.7442C25.1828 28.4056 24.4444 29.3116 23.9868 30.3635C23.5291 31.4153 23.3698 32.5724 23.5262 33.7085C23.6826 34.8446 24.1487 35.9159 24.8736 36.8055C25.5985 37.6952 26.5543 38.3688 27.6367 38.753C28.0284 38.892 28.4594 38.8699 28.8349 38.6917C29.2104 38.5135 29.4995 38.1936 29.6388 37.8025C29.778 37.4115 29.7559 36.9812 29.5774 36.6064C29.3988 36.2315 29.0784 35.9429 28.6867 35.8039C28.1455 35.6118 27.6676 35.275 27.3052 34.8302C26.9427 34.3854 26.7097 33.8497 26.6315 33.2816C26.5533 32.7136 26.6329 32.135 26.8618 31.6091C27.0906 31.0832 27.4597 30.6302 27.929 30.2995C28.3982 29.9688 28.9494 29.7732 29.5224 29.734C30.0955 29.6947 30.6682 29.8135 31.1783 30.0772C31.6883 30.3409 32.1159 30.7394 32.4145 31.2292C32.713 31.7191 32.871 32.2814 32.8712 32.8548V62.5805H30.5517C29.5045 62.5797 28.5004 62.164 27.76 61.4248C27.0195 60.6856 26.6031 59.6833 26.6023 58.6379C26.6404 57.9284 26.473 57.2229 26.12 56.6058C25.767 55.9888 25.2435 55.4863 24.6119 55.1585C24.3847 55.002 24.1261 54.833 23.844 54.6062C21.2605 52.5489 19.1789 49.9327 17.7563 46.955C16.3336 43.9773 15.6072 40.7158 15.6318 37.4169C15.7236 31.8284 17.9287 26.4813 21.8048 22.448C25.6808 18.4147 30.9411 15.9936 36.5306 15.6702C41.1601 15.4449 45.7421 16.6901 49.6183 19.2269C53.4946 21.7637 56.4657 25.4617 58.105 29.7897C59.7443 34.1176 59.9674 38.8529 58.7422 43.3153C57.517 47.7777 54.9066 51.7377 51.286 54.6265V54.6203Z" fill="#0F4C81"/>
<path d="M46.9761 68.8385H28.1695C26.9225 68.8385 25.7266 69.333 24.8449 70.2133C23.9632 71.0935 23.4678 72.2873 23.4678 73.5321C23.4678 74.7769 23.9632 75.9707 24.8449 76.8509C25.7266 77.7311 26.9225 78.2256 28.1695 78.2256H46.9761C48.2231 78.2256 49.419 77.7311 50.3007 76.8509C51.1824 75.9707 51.6778 74.7769 51.6778 73.5321C51.6778 72.2873 51.1824 71.0935 50.3007 70.2133C49.419 69.333 48.2231 68.8385 46.9761 68.8385ZM46.9761 75.0966H28.1695C27.7538 75.0966 27.3552 74.9318 27.0613 74.6384C26.7674 74.345 26.6023 73.947 26.6023 73.5321C26.6023 73.1171 26.7674 72.7192 27.0613 72.4258C27.3552 72.1324 27.7538 71.9676 28.1695 71.9676H46.9761C47.3918 71.9676 47.7904 72.1324 48.0843 72.4258C48.3782 72.7192 48.5433 73.1171 48.5433 73.5321C48.5433 73.947 48.3782 74.345 48.0843 74.6384C47.7904 74.9318 47.3918 75.0966 46.9761 75.0966Z" fill="#0F4C81"/>
<path d="M71.7476 33.0488C70.7446 25.5459 67.2962 18.581 61.9346 13.2286C56.573 7.8762 49.596 4.43382 42.0801 3.43254C41.8095 2.44637 41.2218 1.57628 40.4074 0.956104C39.593 0.335924 38.5971 0 37.5728 0C36.5485 0 35.5526 0.335924 34.7383 0.956104C33.9239 1.57628 33.3362 2.44637 33.0655 3.43254C25.5496 4.43382 18.5727 7.8762 13.211 13.2286C7.8494 18.581 4.40107 25.5459 3.39805 33.0488C2.33807 33.3504 1.41868 34.0157 0.801821 34.9275C0.184957 35.8394 -0.0898247 36.9393 0.0258685 38.0335C0.141562 39.1277 0.64031 40.1461 1.43428 40.9093C2.22824 41.6724 3.2665 42.1315 4.36621 42.2056C5.46591 42.2796 6.55653 41.9639 7.44598 41.3141C8.33543 40.6643 8.96667 39.722 9.22854 38.6532C9.4904 37.5844 9.36609 36.4577 8.8775 35.4714C8.3889 34.4851 7.56736 33.7025 6.55756 33.2615C7.50147 26.52 10.6205 20.2691 15.4421 15.4558C20.2638 10.6425 26.5254 7.52887 33.2786 6.58659C33.6446 7.41935 34.2455 8.12769 35.0081 8.62506C35.7707 9.12243 36.6619 9.38729 37.5728 9.38729C38.4837 9.38729 39.3749 9.12243 40.1375 8.62506C40.9001 8.12769 41.5011 7.41935 41.867 6.58659C48.6202 7.52887 54.8819 10.6425 59.7035 15.4558C64.5252 20.2691 67.6442 26.52 68.5881 33.2615C67.5678 33.7036 66.7368 34.4913 66.2416 35.4855C65.7465 36.4796 65.619 37.6165 65.8817 38.6954C66.1444 39.7743 66.7804 40.7258 67.6774 41.3822C68.5745 42.0386 69.675 42.3575 70.7847 42.2828C71.8944 42.2081 72.942 41.7445 73.7426 40.9738C74.5432 40.2031 75.0454 39.1748 75.1606 38.0705C75.2757 36.9662 74.9965 35.8567 74.372 34.9379C73.7476 34.0191 72.8181 33.3501 71.7476 33.0488Z" fill="#0F4C81"/>
</svg>
