<?xml version="1.0" encoding="utf-8"?>
<!-- Generator: Adobe Illustrator 23.0.3, SVG Export Plug-In . SVG Version: 6.00 Build 0)  -->
<svg version="1.1" id="Слой_1" xmlns="http://www.w3.org/2000/svg" xmlns:xlink="http://www.w3.org/1999/xlink" x="0px" y="0px"
	 width="18.4px" height="52.6px" viewBox="0 0 18.4 52.6" style="enable-background:new 0 0 18.4 52.6;" xml:space="preserve">
<style type="text/css">
	.st0{fill:#0F4C81;}
</style>
<path class="st0" d="M17.8,24.3c-0.9-0.9-2.7-1.3-2.9-2.2c-0.2-1.1-0.3-1.9-0.3-1.9s-1.7,3.7-3.5,4.2c-0.3-1-0.6-1.7-0.8-2.3
	c-0.2-0.6-0.4-0.9-0.4-0.9s0.6-0.1,1.2-0.5c0.7-0.5,1.5-1.4,1.3-3.2c0-0.1,0-0.3-0.1-0.4c-0.6-2.8-2.3-12.1-3-16V0
	c0,0.1-0.1,0.3-0.1,0.5c0-0.2-0.1-0.3-0.1-0.5v1c-0.7,3.9-2.4,13.2-3,16c0,0.1,0,0.3-0.1,0.4c-0.2,1.8,0.5,2.7,1.3,3.2
	c0.6,0.4,1.2,0.5,1.2,0.5S8.3,21.4,8.1,22c-0.2,0.5-0.5,1.3-0.8,2.3c-1.9-0.5-3.5-4.2-3.5-4.2S3.7,21,3.5,22c-0.2,0.9-2,1.3-2.9,2.2
	c-1.9,4.3,0.9,6.2,2.4,6.1C3.6,31,3,31.2,4.6,30.9c-0.2,1.4,1.2,2.4,2.2,2.8c-0.7,0.2-1,1.3-0.1,1.2c1-0.3,2.3,0.3,2,1.2
	c-2.6,1.4-1.4,3.9-0.7,6.5c0.7,2.6-1,6.3-2.7,7.2c0.8,1.6,2.3,2.6,3.9,2.6v0c0,0,0.1,0,0.1,0c0,0,0.1,0,0.1,0v0c1.6-0.1,3-1,3.9-2.6
	c-1.8-0.9-3.4-4.6-2.7-7.2c0.7-2.6,1.9-5.1-0.7-6.5c-0.3-1,1-1.5,2-1.2c0.9,0.1,0.6-1.1-0.1-1.2c1-0.5,2.4-1.4,2.2-2.8
	c1.6,0.3,1,0.1,1.5-0.6C16.8,30.5,19.6,28.6,17.8,24.3z M5.4,26.5c-0.5,0.2-1-0.2-1-0.2s-1.7-1.8-2.7,1.6c-0.6,0.4-0.6-2-0.4-2.4
	c0.2-0.5,2.3-2.3,3.7-1.1C6.5,25.5,5.9,26.3,5.4,26.5z M7.1,31.3c-0.6,0-1-1.1-1-2.4c0-1.3,0.6-2.3,1.1-2.3c0.6,0,1,1.1,1,2.4
	C8.2,30.3,7.6,31.4,7.1,31.3z M10,38.6c0,1-0.3,1.8-0.8,1.9c-0.5-0.1-0.8-0.9-0.8-1.9c0-0.9,0.4-1.7,0.8-1.8
	C9.6,36.9,9.9,37.6,10,38.6z M9.2,26.8C9.2,26.8,9.2,26.8,9.2,26.8C9.2,26.8,9.2,26.8,9.2,26.8c-0.5,0-0.9-0.9-0.8-2
	c0-1,0.4-1.8,0.8-1.9C9.6,23,10,23.9,10,24.8C10,25.9,9.7,26.8,9.2,26.8z M11.3,31.3c-0.6,0-1.1-1-1.1-2.3c0-1.3,0.4-2.4,1-2.4
	c0.6,0,1.1,1,1.1,2.3C12.4,30.3,11.9,31.3,11.3,31.3z M16.7,27.9c-1-3.3-2.7-1.6-2.7-1.6s-0.5,0.4-1,0.2c-0.5-0.2-1.1-1,0.3-2.2
	c1.4-1.2,3.5,0.7,3.7,1.1C17.3,25.9,17.3,28.3,16.7,27.9z"/>
</svg>
