<?xml version="1.0" encoding="utf-8"?>
<!-- Generator: Adobe Illustrator 23.0.3, SVG Export Plug-In . SVG Version: 6.00 Build 0)  -->
<svg version="1.1" id="Слой_1" xmlns="http://www.w3.org/2000/svg" xmlns:xlink="http://www.w3.org/1999/xlink" x="0px" y="0px"
	 width="9.6px" height="67.5px" viewBox="0 0 9.6 67.5" style="enable-background:new 0 0 9.6 67.5;" xml:space="preserve">
<style type="text/css">
	.st0{fill:#0F4C81;}
</style>
<path class="st0" d="M8.3,59.7c-0.2-0.2-0.4-0.4-0.7-0.6c0.5-0.2,1.1-0.6,1.5-1.3c-2-0.5-3.5-7.3-3.9-22.2c0.1-1.1,0.9-1.4,2.3-1
	c1.5-0.5,1.9-1.9-0.1-3.2c1.3-1.5,1.4-2.7-2.4-6c0.6-0.3,1.2-1.5,0.5-1.8c0.6-0.5,0.7-1.1,0-1.4c1.2-0.6,0.5-1.7,0-1.9
	c1.5-1.3,2.7-2.4-0.5-5.7c1.2-1.4,0.7-2.2,0-2.7C4.8,6.7,4.8,0.3,4.8,0.3s0-0.1-0.1-0.3C4.7,0.1,4.7,0.3,4.7,0.3s0,6.4-0.3,11.6
	c-0.7,0.5-1.2,1.3,0,2.7c-3.3,3.3-2,4.4-0.5,5.7c-0.5,0.2-1.2,1.3,0,1.9c-0.7,0.4-0.6,1,0,1.4c-0.7,0.3-0.1,1.5,0.5,1.8
	c-3.7,3.3-3.6,4.5-2.4,6c-2,1.3-1.6,2.7-0.1,3.2c1.4-0.4,2.2-0.1,2.3,1C3.9,50.6,2.4,57.4,0.4,57.9c0.4,0.6,1,1,1.5,1.3
	c-0.3,0.2-0.5,0.4-0.7,0.6c-0.8,0.9-1.3,2.1-1.2,3.3c0,1.2,0.6,2.4,1.5,3.2c0.9,0.8,2,1.2,3.1,1.2c0.1,0,0.1,0,0.2,0
	c0.1,0,0.1,0,0.2,0c1.1,0,2.2-0.4,3.1-1.2c0.9-0.8,1.4-2,1.5-3.2C9.6,61.8,9.2,60.6,8.3,59.7z M4.8,16.1c0.5,0.5,2.3,2.4,0,3.3
	C2.5,18.5,4.3,16.6,4.8,16.1z M2.4,29.5c0-1.6,2.1-2.4,2.4-2.5c0.3,0.1,2.4,0.9,2.4,2.5c0,1.7-2.1,1.2-2.1,1.2S5,30.5,4.8,30.4
	c-0.2,0.1-0.3,0.3-0.3,0.3S2.4,31.2,2.4,29.5z M6,64c-0.4,0.3-0.8,0.5-1.3,0.4c-0.4,0.1-0.9-0.1-1.3-0.4C3.2,63.8,3,63.4,3,62.9
	c0-0.4,0.1-0.8,0.4-1.2c0.3-0.4,0.8-0.5,1.2-0.5c0.1,0,0.1,0,0.2,0c0,0,0.1,0,0.2,0c0.4,0,0.9,0.2,1.2,0.5c0.3,0.3,0.4,0.7,0.4,1.2
	C6.5,63.4,6.4,63.8,6,64z"/>
</svg>
