<svg width="144" height="55" viewBox="0 0 144 55" fill="none" xmlns="http://www.w3.org/2000/svg">
<g clip-path="url(#clip0)">
<path d="M21.4865 34.3973C21.8478 34.3825 22.1456 34.3329 22.3897 34.2536C22.6338 34.1744 22.8193 33.991 22.9512 33.7086C23.083 33.4212 23.1513 32.9653 23.1513 32.3311V23.219C23.1513 22.7928 23.1611 22.3766 23.1855 21.9802C23.2099 21.5838 23.2295 21.2816 23.2441 21.0784C22.9951 21.0933 22.6826 21.1081 22.3067 21.1131C21.9308 21.123 21.6574 21.1329 21.4865 21.1478V19.3144L28.3069 19.2897C29.8546 19.2897 31.1923 19.5226 32.325 19.9933C33.4576 20.459 34.3853 21.0933 35.1127 21.8861C35.8401 22.6789 36.3821 23.5608 36.7433 24.537C37.1046 25.5131 37.2804 26.4892 37.2804 27.4753C37.2804 28.4415 37.1144 29.4275 36.7775 30.4235C36.4407 31.4244 35.9134 32.3361 35.1957 33.1685C34.478 34.0009 33.5406 34.6748 32.3836 35.1901C31.2265 35.7054 29.8302 35.9631 28.1898 35.9631H21.4865V34.3973ZM26.5493 32.0685C26.5493 32.4946 26.5396 32.9108 26.5249 33.3072C26.5103 33.7036 26.4859 34.0059 26.4566 34.209C26.6128 34.1942 26.8276 34.1892 27.101 34.1991C27.3744 34.209 27.6576 34.214 27.9554 34.2239C28.2532 34.2338 28.4925 34.2338 28.6829 34.2338C29.5421 34.2338 30.2793 34.0604 30.8994 33.7086C31.5145 33.3617 32.0223 32.8861 32.4226 32.2915C32.823 31.6969 33.1159 31.028 33.3014 30.2798C33.4869 29.5316 33.5846 28.7635 33.5846 27.9708C33.5846 26.3554 33.3649 25.0275 32.9304 23.9969C32.491 22.9662 31.8807 22.1982 31.0898 21.6879C30.2989 21.1775 29.3615 20.9099 28.2679 20.8802C27.8919 20.8653 27.5746 20.9 27.3207 20.9892C27.0669 21.0784 26.8716 21.2617 26.7446 21.5491C26.6177 21.8365 26.5591 22.2874 26.5591 22.9068V32.0685H26.5493Z" fill="white"/>
<path d="M37.5391 35.968V34.3279C37.9785 34.3279 38.33 34.1991 38.5937 33.9464C38.8573 33.6937 39.0819 33.3617 39.2625 32.9455C39.4432 32.5343 39.6189 32.0883 39.7898 31.6126L44.3595 18.8883H45.9999L50.9895 31.8505C51.0823 32.0883 51.2092 32.45 51.3655 32.9306C51.5217 33.4162 51.6145 33.8374 51.6486 34.2041C51.9123 34.1743 52.1661 34.1545 52.4103 34.1446C52.6544 34.1347 52.8496 34.1347 53.0059 34.1347V35.968H46.703V34.3973C47.1375 34.3973 47.4402 34.3081 47.6062 34.1248C47.7722 33.9415 47.8454 33.6937 47.8308 33.3766C47.8161 33.0595 47.7282 32.7027 47.572 32.3063L47.1033 30.9982L42.0161 31.0924L41.6402 32.2072C41.562 32.4153 41.4498 32.7176 41.2984 33.1239C41.1519 33.5302 41.0152 33.8671 40.8883 34.1347C41.1373 34.105 41.44 34.0852 41.7915 34.0752C42.143 34.0653 42.3969 34.0653 42.5531 34.0653V35.968H37.5391ZM42.6019 29.3086H46.5175L45.4385 26.3356C45.2334 25.7658 45.0528 25.191 44.9015 24.6113C44.7452 24.0315 44.6281 23.5212 44.5499 23.0752H44.5255C44.4621 23.3428 44.3693 23.7491 44.2424 24.2892C44.1154 24.8293 43.9201 25.4685 43.6565 26.2167L42.6019 29.3086Z" fill="white"/>
<path d="M65.143 24.6955C65.143 23.8383 65.0258 23.1298 64.7915 22.5649C64.5571 22 64.2251 21.5838 63.7955 21.3063C63.3659 21.0289 62.8532 20.9 62.2625 20.9149H61.1396V32.0685C61.1396 32.4946 61.1298 32.9109 61.1152 33.3073C61.1005 33.7036 61.0761 34.0059 61.0468 34.2091C61.3105 34.1793 61.6522 34.1595 62.0672 34.1496C62.4822 34.1397 62.7654 34.1397 62.9216 34.1397V35.973H56.0768V34.4023C56.4381 34.3874 56.7359 34.3379 56.98 34.2586C57.2241 34.1793 57.4096 33.996 57.5414 33.7136C57.6733 33.4262 57.7416 32.9703 57.7416 32.3361V20.9347H56.6626C55.7741 20.9496 55.071 21.2618 54.5535 21.8613C54.036 22.4658 53.7822 23.4072 53.7822 24.6906H52.2345L52.3517 19.3145H66.5539L66.6955 24.6906H65.143V24.6955Z" fill="white"/>
<path d="M65.9437 35.968V34.3279C66.3782 34.3279 66.7346 34.1991 66.9982 33.9464C67.2618 33.6937 67.4864 33.3617 67.6671 32.9455C67.8477 32.5343 68.0235 32.0883 68.1943 31.6126L72.7641 18.8883H74.4045L79.3941 31.8505C79.4868 32.0883 79.6138 32.45 79.77 32.9306C79.9262 33.4162 80.019 33.8374 80.0532 34.2041C80.3168 34.1743 80.5707 34.1545 80.8148 34.1446C81.0589 34.1347 81.2542 34.1347 81.4104 34.1347V35.968H75.1075V34.3973C75.5469 34.3973 75.8447 34.3081 76.0107 34.1248C76.1767 33.9415 76.2499 33.6937 76.2353 33.3766C76.2207 33.0595 76.1328 32.7027 75.9765 32.3063L75.5079 30.9982L70.4206 31.0924L70.0447 32.2072C69.9666 32.4153 69.8543 32.7176 69.7029 33.1239C69.5565 33.5302 69.4198 33.8671 69.2928 34.1347C69.5418 34.105 69.8445 34.0852 70.196 34.0752C70.5476 34.0653 70.8014 34.0653 70.9577 34.0653V35.968H65.9437ZM71.0016 29.3086H74.9171L73.8382 26.3356C73.6331 25.7658 73.4525 25.191 73.3011 24.6113C73.1449 24.0315 73.0277 23.5212 72.9496 23.0752H72.9252C72.8617 23.3428 72.7689 23.7491 72.642 24.2892C72.5151 24.8293 72.3198 25.4685 72.0562 26.2167L71.0016 29.3086Z" fill="white"/>
<path d="M92.1415 24.646C91.9999 23.7591 91.7509 23.0158 91.3896 22.4212C91.0283 21.8267 90.5743 21.3807 90.0177 21.0785C89.4611 20.7762 88.8167 20.6325 88.0844 20.6523C87.4106 20.6523 86.8248 20.8406 86.317 21.2222C85.8093 21.6037 85.5554 22.0942 85.5554 22.6987C85.5554 23.1893 85.6921 23.6203 85.9655 23.9821C86.2389 24.3487 86.6588 24.6857 87.2202 25.0028C87.7817 25.3199 88.4945 25.6618 89.3537 26.0235C89.9494 26.2613 90.5547 26.5388 91.1797 26.8559C91.8046 27.173 92.3807 27.5496 92.9128 27.9857C93.445 28.4217 93.8746 28.9271 94.2017 29.5068C94.5288 30.0866 94.6948 30.7654 94.6948 31.5384C94.6948 32.4748 94.4458 33.3073 93.943 34.0357C93.445 34.764 92.742 35.3339 91.8436 35.7352C90.9453 36.1415 89.8957 36.3397 88.6898 36.3397C88.0648 36.3397 87.3911 36.2406 86.6636 36.0424C85.9362 35.8442 85.2527 35.5568 84.6131 35.1753L84.6815 36.1762H82.8751V30.6167H84.4227C84.6424 31.9496 85.1453 32.9505 85.9362 33.6244C86.7271 34.2983 87.6645 34.6352 88.7581 34.6352C89.3196 34.6352 89.8127 34.5312 90.2325 34.328C90.6524 34.1199 90.9844 33.8474 91.2187 33.5055C91.4531 33.1636 91.5702 32.7969 91.5702 32.4005C91.5702 31.8456 91.3798 31.3848 90.9941 31.023C90.6085 30.6564 90.1349 30.3492 89.5637 30.0965C88.9924 29.8438 88.4115 29.596 87.8158 29.3582C87.064 29.0411 86.3658 28.7041 85.7165 28.3474C85.0672 27.9906 84.5008 27.5843 84.0175 27.1235C83.5342 26.6627 83.1582 26.1375 82.8946 25.5429C82.631 24.9483 82.4943 24.2645 82.4943 23.4866C82.4943 22.996 82.587 22.4857 82.7774 21.9505C82.963 21.4203 83.2705 20.9298 83.6904 20.474C84.1103 20.0231 84.6766 19.6514 85.3796 19.369C86.0827 19.0816 86.9517 18.9429 87.9818 18.9429C88.6068 18.9429 89.2903 19.037 90.0324 19.2303C90.7744 19.4235 91.4091 19.7059 91.9413 20.0875L91.8485 19.1113H93.6745V24.651H92.1415V24.646Z" fill="white"/>
<path d="M96.6868 35.9681V34.3973C97.048 34.3825 97.3459 34.3329 97.59 34.2536C97.8341 34.1744 98.0196 33.991 98.1514 33.7086C98.2832 33.4212 98.3516 32.9654 98.3516 32.3311V23.219C98.3516 22.7928 98.3614 22.3766 98.3858 21.9802C98.4102 21.5838 98.4297 21.2816 98.4444 21.0784C98.1954 21.0933 97.8829 21.1081 97.507 21.1131C97.131 21.123 96.8576 21.1329 96.6868 21.1478V19.3145H103.414V20.8852C103.073 20.9 102.775 20.9496 102.526 21.0289C102.277 21.1081 102.082 21.2865 101.95 21.564C101.818 21.8415 101.75 22.3072 101.75 22.9563V32.0636C101.75 32.4897 101.74 32.896 101.725 33.2775C101.711 33.6591 101.686 33.9514 101.657 34.1595H104.796C105.719 34.1446 106.441 33.8127 106.964 33.1735C107.486 32.5293 107.75 31.5582 107.75 30.26H109.322L109.18 35.9681H96.6868Z" fill="white"/>
<path d="M118.647 36.3496C117.163 36.3496 115.903 36.0969 114.863 35.5865C113.823 35.0811 112.984 34.4023 112.344 33.555C111.704 32.7077 111.236 31.7662 110.938 30.7356C110.64 29.705 110.494 28.6744 110.494 27.6437C110.494 26.6428 110.66 25.632 110.997 24.6113C111.333 23.5906 111.841 22.6491 112.52 21.7919C113.198 20.9347 114.053 20.246 115.088 19.7207C116.118 19.1955 117.329 18.9379 118.72 18.9379C120.141 18.9379 121.366 19.2005 122.401 19.7207C123.431 20.246 124.276 20.9397 124.93 21.8018C125.584 22.664 126.073 23.6054 126.395 24.6212C126.717 25.637 126.873 26.6428 126.873 27.6437C126.873 28.6248 126.707 29.6257 126.37 30.6415C126.034 31.6572 125.526 32.5937 124.847 33.4608C124.169 34.328 123.314 35.0216 122.279 35.5518C121.249 36.082 120.038 36.3496 118.647 36.3496ZM118.906 34.6104C119.716 34.6104 120.395 34.4072 120.946 34.0059C121.493 33.5996 121.933 33.0744 122.26 32.4253C122.587 31.7762 122.821 31.0676 122.963 30.2946C123.104 29.5266 123.173 28.7784 123.173 28.0451C123.173 26.95 123.08 25.9541 122.889 25.0473C122.704 24.1455 122.411 23.3626 122.02 22.7036C121.63 22.0446 121.132 21.5392 120.531 21.1825C119.931 20.8257 119.223 20.6572 118.413 20.6721C117.617 20.687 116.943 20.905 116.396 21.3262C115.849 21.7473 115.41 22.2874 115.083 22.9415C114.756 23.6005 114.521 24.3189 114.38 25.0919C114.238 25.8698 114.17 26.623 114.17 27.3514C114.17 28.0946 114.253 28.8874 114.414 29.7298C114.58 30.5721 114.839 31.3649 115.2 32.1081C115.561 32.8514 116.045 33.4559 116.655 33.9167C117.265 34.3825 118.012 34.6104 118.906 34.6104Z" fill="white"/>
<path d="M134.909 36.1118L129.519 23.3379C129.363 22.9415 129.217 22.5302 129.075 22.0992C128.934 21.673 128.865 21.3311 128.865 21.0784C128.616 21.0933 128.387 21.1082 128.172 21.1131C127.962 21.123 127.772 21.1329 127.596 21.1478V19.3145H134.509V20.8852C133.933 20.8703 133.489 20.9942 133.186 21.2667C132.883 21.5343 132.869 22.0199 133.152 22.7185C133.513 23.6055 133.869 24.5023 134.231 25.4041C134.592 26.3059 134.948 27.2028 135.31 28.0897C135.573 28.7537 135.803 29.3383 135.988 29.8388C136.174 30.3392 136.394 30.8892 136.643 31.4938H136.667C136.838 31.0181 137.023 30.4879 137.219 29.8983C137.414 29.3136 137.604 28.7487 137.795 28.2086C138 27.6537 138.195 27.0987 138.39 26.5438C138.586 25.9888 138.786 25.4388 138.986 24.8888C139.191 24.3438 139.386 23.7888 139.572 23.2338C139.65 22.9663 139.777 22.5996 139.958 22.1388C140.138 21.678 140.329 21.3212 140.534 21.0685C140.285 21.0834 139.962 21.0983 139.572 21.1032C139.181 21.1131 138.898 21.123 138.727 21.1379V19.3046H144V20.8753C143.468 20.8902 143.009 21.0884 142.618 21.4699C142.228 21.8514 141.862 22.5005 141.515 23.4221C141.251 24.1208 140.988 24.8194 140.729 25.528C140.47 26.2316 140.211 26.9402 139.958 27.6438C139.699 28.3474 139.44 29.0559 139.172 29.7595C138.908 30.4631 138.644 31.1717 138.386 31.8753C138.127 32.5789 137.868 33.2825 137.614 33.9811C137.355 34.6798 137.097 35.3834 136.828 36.0969H134.909V36.1118Z" fill="white"/>
<path d="M28.3362 55H22.6973L25.3873 47.072L28.3362 55Z" fill="white"/>
<path d="M0 30.1212V24.4032L7.81149 27.1284L0 30.1212Z" fill="white"/>
<path d="M22.5605 0H28.1946L25.5094 7.92793L22.5605 0Z" fill="white"/>
<path d="M14.2058 47.8627L13.4858 47.1932L11.1772 49.7509L11.8973 50.4203L14.2058 47.8627Z" fill="white"/>
<path d="M7.63287 38.3419L7.33447 37.3983L4.0803 38.4583L4.3787 39.4019L7.63287 38.3419Z" fill="white"/>
<path d="M7.18382 16.2028L7.63416 15.3235L4.60178 13.7238L4.15145 14.6031L7.18382 16.2028Z" fill="white"/>
<path d="M14.5419 7.29298L15.3625 6.75586L13.5102 3.84096L12.6896 4.37808L14.5419 7.29298Z" fill="white"/>
</g>
<defs>
<clipPath id="clip0">
<rect width="144" height="55" fill="white"/>
</clipPath>
</defs>
</svg>
