<svg width="136" height="52" viewBox="0 0 136 52" fill="none" xmlns="http://www.w3.org/2000/svg">
<g clip-path="url(#clip0)">
<path d="M20.2928 32.5211C20.634 32.5071 20.9153 32.4602 21.1458 32.3853C21.3764 32.3103 21.5516 32.137 21.6761 31.87C21.8006 31.5983 21.8651 31.1673 21.8651 30.5676V21.9525C21.8651 21.5496 21.8743 21.1561 21.8974 20.7813C21.9205 20.4066 21.9389 20.1208 21.9527 19.9287C21.7176 19.9428 21.4225 19.9568 21.0674 19.9615C20.7124 19.9709 20.4542 19.9803 20.2928 19.9943V18.261L26.7343 18.2375C28.196 18.2375 29.4594 18.4577 30.5291 18.9028C31.5988 19.3431 32.4749 19.9428 33.162 20.6923C33.849 21.4419 34.3608 22.2757 34.702 23.1986C35.0432 24.1215 35.2092 25.0444 35.2092 25.9766C35.2092 26.8902 35.0525 27.8224 34.7343 28.764C34.4161 29.7103 33.9182 30.5723 33.2403 31.3593C32.5625 32.1464 31.6772 32.7835 30.5844 33.2707C29.4916 33.7579 28.1729 34.0015 26.6236 34.0015H20.2928V32.5211ZM25.0743 30.3193C25.0743 30.7222 25.0651 31.1157 25.0513 31.4905C25.0375 31.8653 25.0144 32.1511 24.9867 32.3431C25.1343 32.3291 25.3372 32.3244 25.5954 32.3338C25.8536 32.3431 26.121 32.3478 26.4023 32.3572C26.6836 32.3666 26.9095 32.3666 27.0893 32.3666C27.9009 32.3666 28.5971 32.2026 29.1827 31.87C29.7637 31.542 30.2432 31.0923 30.6213 30.5302C30.9994 29.968 31.2761 29.3356 31.4513 28.6282C31.6265 27.9208 31.7187 27.1947 31.7187 26.4451C31.7187 24.9179 31.5112 23.6624 31.1009 22.688C30.6859 21.7136 30.1095 20.9875 29.3625 20.5049C28.6156 20.0224 27.7303 19.7694 26.6974 19.7413C26.3424 19.7273 26.0426 19.7601 25.8029 19.8444C25.5631 19.9287 25.3787 20.1021 25.2588 20.3738C25.1389 20.6455 25.0836 21.0718 25.0836 21.6574V30.3193H25.0743Z" fill="#357EC3"/>
<path d="M35.4536 34.0061V32.4555C35.8686 32.4555 36.2006 32.3337 36.4496 32.0948C36.6986 31.8559 36.9107 31.542 37.0813 31.1485C37.2519 30.7597 37.4179 30.338 37.5793 29.8883L41.8951 17.858H43.4444L48.1568 30.1132C48.2444 30.338 48.3643 30.68 48.5118 31.1344C48.6594 31.5935 48.747 31.9917 48.7793 32.3384C49.0283 32.3103 49.268 32.2915 49.4986 32.2822C49.7291 32.2728 49.9136 32.2728 50.0611 32.2728V34.0061H44.1084V32.5211C44.5187 32.5211 44.8046 32.4368 44.9614 32.2634C45.1182 32.0901 45.1873 31.8559 45.1735 31.556C45.1597 31.2562 45.0767 30.9189 44.9291 30.5442L44.4865 29.3074L39.6819 29.3964L39.3268 30.4505C39.253 30.6472 39.147 30.933 39.004 31.3171C38.8657 31.7013 38.7366 32.0198 38.6167 32.2728C38.8519 32.2447 39.1378 32.226 39.4698 32.2166C39.8017 32.2072 40.0415 32.2072 40.1891 32.2072V34.0061H35.4536ZM40.2352 27.7099H43.9332L42.9141 24.8991C42.7205 24.3604 42.5499 23.817 42.4069 23.2688C42.2594 22.7207 42.1487 22.2382 42.0749 21.8166H42.0519C41.9919 22.0696 41.9043 22.4537 41.7844 22.9643C41.6646 23.475 41.4801 24.0793 41.2311 24.7867L40.2352 27.7099Z" fill="#357EC3"/>
<path d="M61.5239 23.3486C61.5239 22.5381 61.4133 21.8682 61.1919 21.3341C60.9706 20.8001 60.6571 20.4066 60.2513 20.1442C59.8455 19.8819 59.3614 19.7601 58.8035 19.7741H57.743V30.3194C57.743 30.7223 57.7337 31.1158 57.7199 31.4905C57.7061 31.8653 57.683 32.1511 57.6553 32.3432C57.9043 32.315 58.2271 32.2963 58.619 32.2869C59.011 32.2776 59.2784 32.2776 59.426 32.2776V34.0109H52.9614V32.5259C53.3026 32.5118 53.5839 32.465 53.8144 32.39C54.045 32.315 54.2202 32.1417 54.3447 31.8747C54.4692 31.603 54.5337 31.172 54.5337 30.5723V19.7929H53.5147C52.6755 19.8069 52.0115 20.1021 51.5228 20.6689C51.034 21.2404 50.7943 22.1305 50.7943 23.3439H49.3326L49.4432 18.261H62.8565L62.9902 23.3439H61.5239V23.3486Z" fill="#357EC3"/>
<path d="M62.2801 34.0061V32.4555C62.6905 32.4555 63.0271 32.3337 63.2761 32.0948C63.525 31.8559 63.7372 31.542 63.9078 31.1485C64.0784 30.7597 64.2443 30.338 64.4057 29.8883L68.7216 17.858H70.2709L74.9833 30.1132C75.0709 30.338 75.1908 30.68 75.3383 31.1344C75.4859 31.5935 75.5735 31.9917 75.6057 32.3384C75.8547 32.3103 76.0945 32.2915 76.325 32.2822C76.5556 32.2728 76.74 32.2728 76.8876 32.2728V34.0061H70.9348V32.5211C71.3498 32.5211 71.6311 32.4368 71.7879 32.2634C71.9446 32.0901 72.0138 31.8559 72 31.556C71.9861 31.2562 71.9031 30.9189 71.7556 30.5442L71.3129 29.3074L66.5083 29.3964L66.1533 30.4505C66.0795 30.6472 65.9735 30.933 65.8305 31.3171C65.6922 31.7013 65.5631 32.0198 65.4432 32.2728C65.6784 32.2447 65.9642 32.226 66.2962 32.2166C66.6282 32.2072 66.868 32.2072 67.0155 32.2072V34.0061H62.2801ZM67.057 27.7099H70.755L69.736 24.8991C69.5423 24.3604 69.3717 23.817 69.2288 23.2688C69.0812 22.7207 68.9706 22.2382 68.8968 21.8166H68.8737C68.8138 22.0696 68.7262 22.4537 68.6063 22.9643C68.4864 23.475 68.302 24.0793 68.053 24.7867L67.057 27.7099Z" fill="#357EC3"/>
<path d="M87.0225 23.3016C86.8888 22.4631 86.6536 21.7604 86.3124 21.1982C85.9712 20.636 85.5424 20.2144 85.0167 19.9286C84.4911 19.6429 83.8824 19.507 83.1908 19.5258C82.5545 19.5258 82.0012 19.7038 81.5216 20.0645C81.0421 20.4252 80.8023 20.889 80.8023 21.4605C80.8023 21.9243 80.9314 22.3319 81.1896 22.6739C81.4479 23.0205 81.8444 23.3391 82.3747 23.6389C82.9049 23.9387 83.5781 24.262 84.3896 24.604C84.9522 24.8288 85.5239 25.0912 86.1141 25.391C86.7043 25.6908 87.2484 26.0468 87.751 26.4591C88.2536 26.8713 88.6594 27.3492 88.9683 27.8973C89.2772 28.4454 89.434 29.0872 89.434 29.818C89.434 30.7034 89.1989 31.4904 88.7239 32.1791C88.2536 32.8677 87.5896 33.4065 86.7412 33.7859C85.8928 34.1701 84.9015 34.3575 83.7626 34.3575C83.1723 34.3575 82.536 34.2638 81.849 34.0764C81.162 33.889 80.5164 33.6173 79.9124 33.2566L79.977 34.2029H78.2709V28.9467H79.7326C79.9401 30.2068 80.415 31.1531 81.162 31.7903C81.9089 32.4274 82.7943 32.7459 83.8271 32.7459C84.3574 32.7459 84.8231 32.6476 85.2196 32.4555C85.6162 32.2587 85.9297 32.0011 86.151 31.6778C86.3723 31.3546 86.483 31.0079 86.483 30.6331C86.483 30.1085 86.3032 29.6728 85.9389 29.3308C85.5747 28.9841 85.1274 28.6937 84.5879 28.4548C84.0484 28.2159 83.4997 27.9816 82.9372 27.7568C82.2271 27.4569 81.5677 27.1384 80.9545 26.8011C80.3412 26.4638 79.8064 26.0796 79.3499 25.644C78.8934 25.2083 78.5383 24.7117 78.2893 24.1495C78.0404 23.5874 77.9113 22.9409 77.9113 22.2054C77.9113 21.7416 77.9989 21.2591 78.1787 20.7531C78.3539 20.2519 78.6444 19.7881 79.0409 19.3571C79.4375 18.9308 79.9724 18.5795 80.6363 18.3124C81.3003 18.0407 82.1211 17.9095 83.094 17.9095C83.6842 17.9095 84.3297 17.9986 85.0306 18.1813C85.7314 18.364 86.3309 18.631 86.8334 18.9917L86.7458 18.0688H88.4703V23.3063H87.0225V23.3016Z" fill="#357EC3"/>
<path d="M91.3153 34.0062V32.5212C91.6565 32.5071 91.9378 32.4603 92.1683 32.3853C92.3989 32.3104 92.5741 32.137 92.6986 31.87C92.8231 31.5983 92.8876 31.1673 92.8876 30.5677V21.9525C92.8876 21.5496 92.8969 21.1561 92.9199 20.7813C92.943 20.4066 92.9614 20.1208 92.9753 19.9287C92.7401 19.9428 92.445 19.9568 92.09 19.9615C91.7349 19.9709 91.4767 19.9803 91.3153 19.9943V18.261H97.6692V19.746C97.3464 19.7601 97.0652 19.8069 96.83 19.8819C96.5948 19.9568 96.4104 20.1255 96.2859 20.3878C96.1614 20.6502 96.0969 21.0905 96.0969 21.7042V30.3147C96.0969 30.7176 96.0876 31.1017 96.0738 31.4624C96.06 31.8232 96.0369 32.0996 96.0093 32.2963H98.9741C99.8456 32.2823 100.528 31.9684 101.021 31.3641C101.515 30.755 101.764 29.8368 101.764 28.6095H103.248L103.115 34.0062H91.3153Z" fill="#357EC3"/>
<path d="M112.055 34.3669C110.654 34.3669 109.464 34.128 108.482 33.6454C107.5 33.1676 106.707 32.5258 106.103 31.7247C105.499 30.9236 105.056 30.0336 104.775 29.0591C104.493 28.0847 104.355 27.1103 104.355 26.1359C104.355 25.1896 104.512 24.2339 104.83 23.2689C105.148 22.3038 105.628 21.4137 106.269 20.6033C106.909 19.7928 107.716 19.1417 108.694 18.6451C109.667 18.1485 110.81 17.9049 112.124 17.9049C113.466 17.9049 114.624 18.1532 115.601 18.6451C116.574 19.1417 117.372 19.7975 117.99 20.6127C118.607 21.4278 119.069 22.3179 119.373 23.2782C119.677 24.2386 119.825 25.1896 119.825 26.1359C119.825 27.0635 119.668 28.0098 119.35 28.9701C119.032 29.9305 118.552 30.8159 117.911 31.6357C117.27 32.4555 116.463 33.1114 115.486 33.6127C114.513 34.1139 113.369 34.3669 112.055 34.3669ZM112.3 32.7226C113.065 32.7226 113.706 32.5305 114.227 32.151C114.743 31.7669 115.158 31.2703 115.467 30.6566C115.776 30.0429 115.998 29.373 116.131 28.6422C116.265 27.9161 116.33 27.2087 116.33 26.5154C116.33 25.48 116.242 24.5384 116.062 23.6811C115.887 22.8285 115.61 22.0883 115.241 21.4653C114.873 20.8422 114.402 20.3644 113.835 20.0271C113.268 19.6898 112.599 19.5305 111.834 19.5445C111.082 19.5586 110.446 19.7647 109.93 20.1629C109.413 20.5611 108.998 21.0718 108.689 21.6901C108.38 22.3132 108.159 22.9925 108.025 23.7233C107.892 24.4588 107.827 25.1709 107.827 25.8595C107.827 26.5622 107.905 27.3118 108.058 28.1081C108.214 28.9045 108.459 29.6541 108.8 30.3568C109.141 31.0595 109.598 31.631 110.174 32.0667C110.75 32.5071 111.456 32.7226 112.3 32.7226Z" fill="#357EC3"/>
<path d="M127.414 34.142L122.324 22.0649C122.176 21.6901 122.038 21.3013 121.904 20.8937C121.771 20.4909 121.706 20.1676 121.706 19.9287C121.471 19.9428 121.254 19.9568 121.051 19.9615C120.853 19.9709 120.673 19.9802 120.507 19.9943V18.261H127.036V19.746C126.492 19.7319 126.073 19.8491 125.787 20.1067C125.501 20.3597 125.487 20.8188 125.754 21.4793C126.096 22.3179 126.432 23.1658 126.773 24.0184C127.115 24.871 127.451 25.719 127.792 26.5575C128.041 27.1853 128.258 27.7381 128.433 28.2112C128.609 28.6844 128.816 29.2044 129.051 29.7759H129.074C129.236 29.3262 129.411 28.8249 129.595 28.2674C129.78 27.7146 129.96 27.1806 130.139 26.67C130.333 26.1453 130.518 25.6206 130.702 25.0959C130.886 24.5712 131.075 24.0512 131.265 23.5312C131.458 23.0159 131.643 22.4912 131.818 21.9665C131.892 21.7136 132.012 21.3669 132.182 20.9312C132.353 20.4956 132.533 20.1583 132.726 19.9193C132.491 19.9334 132.187 19.9474 131.818 19.9521C131.449 19.9615 131.182 19.9709 131.02 19.9849V18.2516H136V19.7366C135.497 19.7507 135.064 19.9381 134.695 20.2988C134.326 20.6595 133.98 21.2732 133.653 22.1446C133.404 22.8051 133.155 23.4656 132.911 24.1356C132.666 24.8008 132.422 25.4707 132.182 26.1359C131.938 26.8011 131.693 27.471 131.44 28.1363C131.191 28.8015 130.942 29.4714 130.697 30.1366C130.453 30.8019 130.209 31.4671 129.969 32.1276C129.724 32.7882 129.48 33.4534 129.227 34.128H127.414V34.142Z" fill="#357EC3"/>
<path d="M26.7619 52H21.4363L23.9769 44.5045L26.7619 52Z" fill="#357EC3"/>
<path d="M0 28.4781V23.072L7.37752 25.6486L0 28.4781Z" fill="#357EC3"/>
<path d="M21.3072 0H26.6282L24.0922 7.4955L21.3072 0Z" fill="#357EC3"/>
<path d="M13.4166 45.252L12.7366 44.6191L10.5563 47.0373L11.2363 47.6702L13.4166 45.252Z" fill="#357EC3"/>
<path d="M7.20882 36.2506L6.927 35.3584L3.85362 36.3606L4.13544 37.2527L7.20882 36.2506Z" fill="#357EC3"/>
<path d="M6.78471 15.319L7.21002 14.4877L4.34611 12.9753L3.9208 13.8066L6.78471 15.319Z" fill="#357EC3"/>
<path d="M13.734 6.89527L14.509 6.38745L12.7596 3.63155L11.9846 4.13937L13.734 6.89527Z" fill="#357EC3"/>
</g>
<defs>
<clipPath id="clip0">
<rect width="136" height="52" fill="white"/>
</clipPath>
</defs>
</svg>
